<svg width="1024" height="1024" viewBox="0 0 1024 1024" xmlns="http://www.w3.org/2000/svg">
  <defs>
    <linearGradient id="bg" x1="0%" y1="0%" x2="100%" y2="100%">
      <stop offset="0%" style="stop-color:#14532d"/>
      <stop offset="100%" style="stop-color:#22c55e"/>
    </linearGradient>
  </defs>
  <!-- Background rounded square -->
  <rect width="1024" height="1024" rx="230" fill="url(#bg)"/>
  <!-- Bowl -->
  <ellipse cx="512" cy="520" rx="280" ry="40" fill="rgba(255,255,255,0.2)"/>
  <path d="M232 480 Q232 680 512 720 Q792 680 792 480 Z" fill="white" opacity="0.95"/>
  <!-- Noodles / food lines -->
  <path d="M340 540 Q420 510 500 550 Q580 590 660 540" stroke="#16a34a" stroke-width="18" fill="none" stroke-linecap="round"/>
  <path d="M320 580 Q410 545 510 585 Q610 625 680 580" stroke="#15803d" stroke-width="14" fill="none" stroke-linecap="round"/>
  <!-- Chopsticks -->
  <line x1="440" y1="280" x2="380" y2="500" stroke="white" stroke-width="20" stroke-linecap="round"/>
  <line x1="490" y1="270" x2="450" y2="500" stroke="rgba(255,255,255,0.8)" stroke-width="16" stroke-linecap="round"/>
  <!-- Steam lines -->
  <path d="M420 370 Q410 340 420 310 Q430 280 420 250" stroke="rgba(255,255,255,0.5)" stroke-width="10" fill="none" stroke-linecap="round"/>
  <path d="M512 360 Q502 330 512 300 Q522 270 512 240" stroke="rgba(255,255,255,0.5)" stroke-width="10" fill="none" stroke-linecap="round"/>
  <path d="M604 370 Q594 340 604 310 Q614 280 604 250" stroke="rgba(255,255,255,0.5)" stroke-width="10" fill="none" stroke-linecap="round"/>
  <!-- Text CaloViet -->
  <text x="512" y="820" text-anchor="middle" font-family="Arial Black, sans-serif" font-weight="900" font-size="110" fill="white" letter-spacing="-3">CaloViet</text>
</svg>
